<svg width="68" height="68" viewBox="0 0 68 68" fill="none" xmlns="http://www.w3.org/2000/svg">
<g id="user">
<g clip-path="url(#clip0_443_673)">
<rect width="68" height="68" rx="8" fill="#ECEDFD"/>
<g id="Group 1456">
<circle id="Ellipse 190" cx="34.3334" cy="31.3334" r="11.3334" fill="white"/>
<path id="Ellipse 191" d="M61.7529 69.812C61.7529 66.1512 61.0319 62.5263 59.6309 59.1441C58.23 55.762 56.1766 52.6889 53.5881 50.1004C50.9995 47.5118 47.9264 45.4584 44.5443 44.0575C41.1622 42.6566 37.5372 41.9355 33.8764 41.9355C30.2157 41.9355 26.5907 42.6566 23.2086 44.0575C19.8265 45.4584 16.7534 47.5118 14.1648 50.1004C11.5763 52.6889 9.52289 55.762 8.12197 59.1441C6.72105 62.5263 6 66.1512 6 69.812L33.8765 69.812H61.7529Z" fill="white"/>
</g>
</g>
</g>
<defs>
<clipPath id="clip0_443_673">
<rect width="68" height="68" rx="8" fill="white"/>
</clipPath>
</defs>
</svg>
